<?xml version="1.0" encoding="utf-8" standalone="no"?>
<!DOCTYPE svg PUBLIC "-//W3C//DTD SVG 1.1//EN"
  "http://www.w3.org/Graphics/SVG/1.1/DTD/svg11.dtd">
<svg xmlns:xlink="http://www.w3.org/1999/xlink" width="984.6pt" height="568.8pt" viewBox="0 0 984.6 568.8" xmlns="http://www.w3.org/2000/svg" version="1.1">
 <metadata>
  <rdf:RDF xmlns:dc="http://purl.org/dc/elements/1.1/" xmlns:cc="http://creativecommons.org/ns#" xmlns:rdf="http://www.w3.org/1999/02/22-rdf-syntax-ns#">
   <cc:Work>
    <dc:type rdf:resource="http://purl.org/dc/dcmitype/StillImage"/>
    <dc:date>2026-07-11T22:23:41.139659</dc:date>
    <dc:format>image/svg+xml</dc:format>
    <dc:creator>
     <cc:Agent>
      <dc:title>Matplotlib v3.10.9, https://matplotlib.org/</dc:title>
     </cc:Agent>
    </dc:creator>
   </cc:Work>
  </rdf:RDF>
 </metadata>
 <defs>
  <style type="text/css">*{stroke-linejoin: round; stroke-linecap: butt}</style>
 </defs>
 <g id="figure_1">
  <g id="patch_1">
   <path d="M 0 568.8 
L 984.6 568.8 
L 984.6 0 
L 0 0 
L 0 568.8 
z
" style="fill: none"/>
  </g>
  <g id="axes_1">
   <g id="matplotlib.axis_1"/>
   <g id="matplotlib.axis_2"/>
   <g id="PatchCollection_1">
    <path d="M 7.692783 470.769526 
L 61.391597 461.297063 
L 99.021365 454.725607 
L 130.62226 450.089218 
L 159.42608 446.817515 
L 158.08281 463.967797 
L 160.110068 480.289291 
L 162.181414 495.814075 
L 163.047763 510.35593 
L 136.761654 516.08613 
L 110.942187 525.064365 
L 85.878449 539.512998 
L 61.658056 564.026741 
L 70.417925 531.821461 
L 65.35896 504.746926 
L 45.920021 483.596558 
z
" clip-path="url(#p2ea9cec110)" style="fill: #2a56c6"/>
    <path d="M 7.692783 470.769526 
L 53.7436 448.517822 
L 82.881947 427.54666 
L 102.933823 406.127855 
L 116.930951 383.767289 
L 132.993343 383.036332 
L 151.00989 381.022171 
L 170.202527 378.411704 
L 189.980955 376.466585 
L 183.553502 395.036615 
L 175.378095 412.824206 
L 166.57866 429.90227 
L 159.42608 446.817515 
L 130.62226 450.089218 
L 99.021365 454.725607 
L 61.391597 461.297063 
z
" clip-path="url(#p2ea9cec110)" style="fill: #5e97f6"/>
    <path d="M 141.95921 299.362321 
L 168.577349 303.707189 
L 195.471434 299.454823 
L 223.00738 284.255115 
L 210.660762 314.774695 
L 202.736582 337.636494 
L 196.206263 357.578832 
L 189.980955 376.466585 
L 170.202527 378.411704 
L 151.00989 381.022171 
L 132.993343 383.036332 
L 116.930951 383.767289 
L 125.990708 360.339978 
L 130.364226 336.037004 
L 128.230829 310.803578 
L 115.382987 284.255115 
z
" clip-path="url(#p2ea9cec110)" style="fill: #5e97f6"/>
    <path d="M 216.333303 505.79753 
L 189.626317 507.080323 
L 163.047763 510.35593 
L 162.181414 495.814075 
L 160.110068 480.289291 
L 158.08281 463.967797 
L 159.42608 446.817515 
L 186.721395 444.795477 
L 212.975024 444.011145 
L 238.404135 444.376642 
L 263.044616 445.706667 
L 261.289524 462.77437 
L 262.678179 479.303549 
L 266.095572 494.815299 
L 270.241833 509.032852 
L 243.211961 506.480662 
z
" clip-path="url(#p2ea9cec110)" style="fill: #2a56c6"/>
    <path d="M 275.540797 412.101696 
L 268.543135 428.859682 
L 263.044616 445.706667 
L 238.404135 444.376642 
L 212.975024 444.011145 
L 186.721395 444.795477 
L 159.42608 446.817515 
L 166.57866 429.90227 
L 175.378095 412.824206 
L 183.553502 395.036615 
L 189.980955 376.466585 
L 209.749274 375.322919 
L 229.889505 374.845774 
L 251.488153 374.896653 
L 276.786671 377.512311 
L 281.369542 394.85161 
z
" clip-path="url(#p2ea9cec110)" style="fill: #5e97f6"/>
    <path d="M 196.206263 357.578832 
L 202.736582 337.636494 
L 210.660762 314.774695 
L 223.00738 284.255115 
L 228.076445 314.68617 
L 239.355773 338.417519 
L 255.021464 359.127873 
L 276.786671 377.512311 
L 251.488153 374.896653 
L 229.889505 374.845774 
L 209.749274 375.322919 
L 189.980955 376.466585 
z
" clip-path="url(#p2ea9cec110)" style="fill: #3367d6"/>
    <path d="M 262.678179 479.303549 
L 261.289524 462.77437 
L 263.044616 445.706667 
L 286.689661 448.024945 
L 308.907321 451.322708 
L 328.966703 455.188337 
L 345.835882 458.757699 
L 351.749753 475.027384 
L 359.023729 496.219825 
L 368.980706 523.79872 
L 384.531251 564.026741 
L 353.590925 537.45657 
L 325.229152 522.606487 
L 297.560574 513.988804 
L 270.241833 509.032852 
L 266.095572 494.815299 
z
" clip-path="url(#p2ea9cec110)" style="fill: #2a56c6"/>
    <path d="M 275.540797 412.101696 
L 281.369542 394.85161 
L 276.786671 377.512311 
L 321.869585 377.591427 
L 355.297405 381.023891 
L 384.939315 386.352425 
L 414.859264 393.683458 
L 389.649377 412.677194 
L 371.111341 429.953623 
L 356.944551 445.688366 
L 345.835882 458.757699 
L 328.966703 455.188337 
L 308.907321 451.322708 
L 286.689661 448.024945 
L 263.044616 445.706667 
L 268.543135 428.859682 
z
" clip-path="url(#p2ea9cec110)" style="fill: #5e97f6"/>
    <path d="M 384.939315 386.352425 
L 355.297405 381.023891 
L 321.869585 377.591427 
L 276.786671 377.512311 
L 323.013554 362.202722 
L 355.817909 345.207116 
L 381.618715 326.779421 
L 403.18727 307.156451 
L 418.542108 307.546139 
L 435.429896 307.80046 
L 453.313028 307.889459 
L 471.709296 307.295388 
L 457.487832 326.685088 
L 443.071912 346.946806 
L 428.697318 368.644098 
L 414.859264 393.683458 
z
" clip-path="url(#p2ea9cec110)" style="fill: #5e97f6"/>
    <path d="M 389.649377 412.677194 
L 414.859264 393.683458 
L 425.044626 416.174515 
L 432.445056 435.98006 
L 437.635768 454.022501 
L 438.376333 470.769526 
L 419.225691 483.502699 
L 402.893166 502.12798 
L 390.516517 527.463635 
L 384.531251 564.026741 
L 368.980706 523.79872 
L 359.023729 496.219825 
L 351.749753 475.027384 
L 345.835882 458.757699 
L 356.944551 445.688366 
L 371.111341 429.953623 
z
" clip-path="url(#p2ea9cec110)" style="fill: #00796b"/>
    <path d="M 435.429896 307.80046 
L 418.542108 307.546139 
L 403.18727 307.156451 
L 421.395268 286.158943 
L 437.850792 264.698316 
L 453.062523 242.922515 
L 467.280579 220.790403 
L 480.771665 223.851404 
L 494.789852 226.095117 
L 509.220954 227.971613 
L 523.227484 230.665975 
L 511.069998 250.640722 
L 498.991819 270.015449 
L 485.602856 288.542478 
L 471.709296 307.295388 
L 453.313028 307.889459 
z
" clip-path="url(#p2ea9cec110)" style="fill: #5e97f6"/>
    <path d="M 480.34824 197.994204 
L 492.474837 174.851907 
L 503.27059 151.209631 
L 511.452364 126.492814 
L 525.145366 133.621883 
L 541.1324 139.809138 
L 559.654976 144.386502 
L 581.26359 147.498045 
L 564.72328 169.900062 
L 550.127923 190.73615 
L 536.40195 210.874771 
L 523.227484 230.665975 
L 509.220954 227.971613 
L 494.789852 226.095117 
L 480.771665 223.851404 
L 467.280579 220.790403 
z
" clip-path="url(#p2ea9cec110)" style="fill: #5e97f6"/>
    <path d="M 527.047497 294.958471 
L 545.8867 284.244447 
L 541.779998 312.065091 
L 535.032074 335.490043 
L 528.315287 357.074862 
L 523.75917 377.975433 
L 500.415899 379.937473 
L 475.150053 383.034634 
L 447.325741 387.38949 
L 414.859264 393.683458 
L 428.697318 368.644098 
L 443.071912 346.946806 
L 457.487832 326.685088 
L 471.709296 307.295388 
L 490.207233 304.732092 
L 508.595815 300.760941 
z
" clip-path="url(#p2ea9cec110)" style="fill: #1ca69a"/>
    <path d="M 425.044626 416.174515 
L 414.859264 393.683458 
L 447.325741 387.38949 
L 475.150053 383.034634 
L 500.415899 379.937473 
L 523.75917 377.975433 
L 524.264704 398.358961 
L 528.654705 418.736584 
L 536.156476 441.112175 
L 546.186705 470.769526 
L 517.59169 458.695631 
L 490.099542 456.84299 
L 463.625943 461.085783 
L 438.376333 470.769526 
L 437.635768 454.022501 
L 432.445056 435.98006 
z
" clip-path="url(#p2ea9cec110)" style="fill: #00695c"/>
    <path d="M 590.514455 101.166033 
L 586.62409 122.78888 
L 581.26359 147.498045 
L 559.654976 144.386502 
L 541.1324 139.809138 
L 525.145366 133.621883 
L 511.452364 126.492814 
L 516.290562 100.433293 
L 516.228765 72.632416 
L 509.17042 42.080007 
L 491.999762 4.773259 
L 518.57232 35.755864 
L 543.509693 53.999252 
L 569.205975 63.389837 
L 595.506728 65.459506 
L 593.422419 81.976325 
z
" clip-path="url(#p2ea9cec110)" style="fill: #5e97f6"/>
    <path d="M 527.047497 294.958471 
L 508.595815 300.760941 
L 490.207233 304.732092 
L 471.709296 307.295388 
L 485.602856 288.542478 
L 498.991819 270.015449 
L 511.069998 250.640722 
L 523.227484 230.665975 
L 533.303542 240.12857 
L 540.829772 251.797904 
L 544.496801 266.170677 
L 545.8867 284.244447 
z
" clip-path="url(#p2ea9cec110)" style="fill: #00796b"/>
    <path d="M 544.496801 266.170677 
L 540.829772 251.797904 
L 533.303542 240.12857 
L 523.227484 230.665975 
L 536.40195 210.874771 
L 550.127923 190.73615 
L 564.72328 169.900062 
L 581.26359 147.498045 
L 590.617571 166.252956 
L 599.281133 182.260011 
L 608.974528 195.982248 
L 599.744316 191.287703 
L 584.942397 216.50548 
L 571.573218 239.010874 
L 558.68677 261.043916 
L 545.8867 284.244447 
z
" clip-path="url(#p2ea9cec110)" style="fill: #00796b"/>
    <path d="M 635.87375 310.562208 
L 624.627977 334.505655 
L 614.966673 357.212855 
L 605.344152 379.061077 
L 585.152373 378.683919 
L 565.283961 378.361986 
L 545.136226 378.024654 
L 523.75917 377.975433 
L 528.315287 357.074862 
L 535.032074 335.490043 
L 541.779998 312.065091 
L 545.8867 284.244447 
L 568.643833 299.05857 
L 594.810842 303.028467 
L 622.80913 298.794759 
L 653.52957 284.233806 
z
" clip-path="url(#p2ea9cec110)" style="fill: #1ca69a"/>
    <path d="M 581.577417 420.397698 
L 566.939861 442.914722 
L 546.186705 470.769526 
L 536.156476 441.112175 
L 528.654705 418.736584 
L 524.264704 398.358961 
L 523.75917 377.975433 
L 545.136226 378.024654 
L 565.283961 378.361986 
L 585.152373 378.683919 
L 605.344152 379.061077 
L 594.110252 399.757106 
z
" clip-path="url(#p2ea9cec110)" style="fill: #00695c"/>
    <path d="M 693.467032 180.135225 
L 674.253049 191.432137 
L 652.997486 198.665048 
L 628.95538 200.884107 
L 599.744316 191.287703 
L 608.974528 195.982248 
L 599.281133 182.260011 
L 590.617571 166.252956 
L 581.26359 147.498045 
L 604.602421 136.603598 
L 625.140817 127.302202 
L 643.212292 118.745217 
L 658.345958 111.299104 
L 665.778199 125.546147 
L 674.179596 142.109151 
L 683.3936 160.383842 
z
" clip-path="url(#p2ea9cec110)" style="fill: #00695c"/>
    <path d="M 590.514455 101.166033 
L 593.422419 81.976325 
L 595.506728 65.459506 
L 622.12647 61.841612 
L 648.855182 51.909702 
L 676.493558 34.825031 
L 707.248561 4.773259 
L 688.540186 46.62165 
L 675.985387 74.458218 
L 666.236811 95.399469 
L 658.345958 111.299104 
L 643.212292 118.745217 
L 625.140817 127.302202 
L 604.602421 136.603598 
L 581.26359 147.498045 
L 586.62409 122.78888 
z
" clip-path="url(#p2ea9cec110)" style="fill: #ea80fc"/>
    <path d="M 688.045114 398.626232 
L 676.930545 419.572255 
L 666.293156 438.763824 
L 657.123321 456.301073 
L 649.908392 471.432095 
L 632.56084 469.590306 
L 610.691945 468.224072 
L 583.444012 468.325273 
L 546.186705 470.769526 
L 566.939861 442.914722 
L 581.577417 420.397698 
L 594.110252 399.757106 
L 605.344152 379.061077 
L 626.096519 381.268813 
L 647.114963 384.58879 
L 667.977079 389.949389 
z
" clip-path="url(#p2ea9cec110)" style="fill: #ea80fc"/>
    <path d="M 602.050343 535.502764 
L 592.958597 510.646714 
L 575.330469 488.86655 
L 546.186705 470.769526 
L 583.444012 468.325273 
L 610.691945 468.224072 
L 632.56084 469.590306 
L 649.908392 471.432095 
L 660.571666 485.489213 
L 673.207495 504.038453 
L 687.858702 528.414361 
L 707.422657 563.673066 
L 676.190043 546.429838 
L 648.329942 541.919201 
L 622.517851 546.966391 
L 599.947314 563.673066 
z
" clip-path="url(#p2ea9cec110)" style="fill: #6a1b9a"/>
    <path d="M 647.986784 260.543241 
L 638.8533 236.955176 
L 623.793464 213.97118 
L 599.744316 191.287703 
L 628.95538 200.884107 
L 652.997486 198.665048 
L 674.253049 191.432137 
L 693.467032 180.135225 
L 703.679402 201.935949 
L 713.198995 226.385425 
L 721.702482 254.221855 
L 729.176185 287.663077 
L 703.218345 288.690287 
L 682.043776 289.21246 
L 664.650877 289.225302 
L 653.52957 284.233806 
z
" clip-path="url(#p2ea9cec110)" style="fill: #00695c"/>
    <path d="M 635.87375 310.562208 
L 653.52957 284.233806 
L 664.650877 289.225302 
L 682.043776 289.21246 
L 703.218345 288.690287 
L 729.176185 287.663077 
L 719.212162 321.554956 
L 708.996219 350.018626 
L 698.67452 375.480433 
L 688.045114 398.626232 
L 667.977079 389.949389 
L 647.114963 384.58879 
L 626.096519 381.268813 
L 605.344152 379.061077 
L 614.966673 357.212855 
L 624.627977 334.505655 
z
" clip-path="url(#p2ea9cec110)" style="fill: #ea80fc"/>
    <path d="M 693.467032 180.135225 
L 683.3936 160.383842 
L 674.179596 142.109151 
L 665.778199 125.546147 
L 658.345958 111.299104 
L 666.236811 95.399469 
L 675.985387 74.458218 
L 688.540186 46.62165 
L 707.248561 4.773259 
L 709.686221 44.07602 
L 719.731579 71.689759 
L 736.280702 91.456116 
L 761.143907 97.909696 
L 742.931081 124.948266 
L 726.662919 146.353999 
L 710.629467 164.769483 
z
" clip-path="url(#p2ea9cec110)" style="fill: #9c27b0"/>
    <path d="M 741.444358 446.646552 
L 761.267766 470.415856 
L 736.254112 479.805185 
L 719.165314 499.933075 
L 708.869099 527.000805 
L 707.422657 563.673066 
L 687.858702 528.414361 
L 673.207495 504.038453 
L 660.571666 485.489213 
L 649.908392 471.432095 
L 657.123321 456.301073 
L 666.293156 438.763824 
L 676.930545 419.572255 
L 688.045114 398.626232 
L 706.474236 411.499012 
L 723.866483 427.620845 
z
" clip-path="url(#p2ea9cec110)" style="fill: #9c27b0"/>
    <path d="M 693.467032 180.135225 
L 710.629467 164.769483 
L 726.662919 146.353999 
L 742.931081 124.948266 
L 761.143907 97.909696 
L 769.920548 130.643091 
L 778.48146 156.304912 
L 787.53766 179.13722 
L 798.080827 200.629919 
L 783.719837 221.199564 
L 767.670151 242.036166 
L 749.85518 263.689279 
L 729.176185 287.663077 
L 721.702482 254.221855 
L 713.198995 226.385425 
L 703.679402 201.935949 
z
" clip-path="url(#p2ea9cec110)" style="fill: #9c27b0"/>
    <path d="M 688.045114 398.626232 
L 698.67452 375.480433 
L 708.996219 350.018626 
L 719.212162 321.554956 
L 729.176185 287.663077 
L 749.525319 310.248032 
L 767.391578 330.714326 
L 783.615772 350.523109 
L 798.196801 370.24013 
L 787.355151 391.638639 
L 778.112318 414.171707 
L 769.684842 439.234615 
L 761.267766 470.415856 
L 741.444358 446.646552 
L 723.866483 427.620845 
L 706.474236 411.499012 
z
" clip-path="url(#p2ea9cec110)" style="fill: #9c27b0"/>
    <path d="M 834.802346 24.205762 
L 859.928032 30.407019 
L 888.369134 24.953203 
L 922.497307 4.773259 
L 896.446967 42.962102 
L 877.171 70.946114 
L 860.774667 95.235966 
L 846.444125 117.854663 
L 829.72577 111.65403 
L 810.989769 108.035837 
L 789.347326 104.585486 
L 761.143907 97.909696 
L 786.200585 80.217511 
L 803.215045 58.52144 
L 813.873456 33.741027 
L 814.872934 4.773259 
z
" clip-path="url(#p2ea9cec110)" style="fill: #ea80fc"/>
    <path d="M 810.203609 179.942783 
L 798.080827 200.629919 
L 787.53766 179.13722 
L 778.48146 156.304912 
L 769.920548 130.643091 
L 761.143907 97.909696 
L 789.347326 104.585486 
L 810.989769 108.035837 
L 829.72577 111.65403 
L 846.444125 117.854663 
L 833.405972 139.020715 
L 821.531754 159.449371 
z
" clip-path="url(#p2ea9cec110)" style="fill: #ea80fc"/>
    <path d="M 826.900962 240.74661 
L 844.958425 261.32115 
L 868.865076 284.062311 
L 845.133456 308.090585 
L 827.101958 329.374895 
L 811.657721 349.770525 
L 798.196801 370.24013 
L 783.615772 350.523109 
L 767.391578 330.714326 
L 749.525319 310.248032 
L 729.176185 287.663077 
L 749.85518 263.689279 
L 767.670151 242.036166 
L 783.719837 221.199564 
L 798.080827 200.629919 
L 811.490557 220.829182 
z
" clip-path="url(#p2ea9cec110)" style="fill: #9c27b0"/>
    <path d="M 896.983804 526.041674 
L 923.062108 564.026741 
L 888.9324 544.007139 
L 860.516056 538.554908 
L 835.39739 544.726157 
L 815.437683 564.026741 
L 814.327369 535.033186 
L 803.567453 510.183261 
L 786.449328 488.36176 
L 761.267766 470.415856 
L 789.570673 464.548974 
L 811.300897 461.317446 
L 830.122979 457.803814 
L 846.949771 451.738675 
L 861.312679 474.12054 
L 877.728433 498.218505 
z
" clip-path="url(#p2ea9cec110)" style="fill: #00695c"/>
    <path d="M 821.852023 410.606243 
L 833.784175 430.807745 
L 846.949771 451.738675 
L 830.122979 457.803814 
L 811.300897 461.317446 
L 789.570673 464.548974 
L 761.267766 470.415856 
L 769.684842 439.234615 
L 778.112318 414.171707 
L 787.355151 391.638639 
L 798.196801 370.24013 
L 810.442375 390.433669 
z
" clip-path="url(#p2ea9cec110)" style="fill: #00695c"/>
    <path d="M 826.900962 240.74661 
L 811.490557 220.829182 
L 798.080827 200.629919 
L 810.203609 179.942783 
L 821.531754 159.449371 
L 833.405972 139.020715 
L 846.444125 117.854663 
L 858.988853 130.408592 
L 869.678157 144.148565 
L 880.223612 156.848135 
L 891.114044 167.320051 
L 878.889574 191.770477 
L 869.609401 218.43634 
L 865.01862 248.402513 
L 868.865076 284.062311 
L 844.958425 261.32115 
z
" clip-path="url(#p2ea9cec110)" style="fill: #9c27b0"/>
    <path d="M 878.855974 377.327454 
L 891.296497 401.703836 
L 880.51708 412.367024 
L 870.096843 425.245323 
L 859.507656 439.138576 
L 846.949771 451.738675 
L 833.784175 430.807745 
L 821.852023 410.606243 
L 810.442375 390.433669 
L 798.196801 370.24013 
L 811.657721 349.770525 
L 827.101958 329.374895 
L 845.133456 308.090585 
L 868.865076 284.062311 
L 864.980361 320.36229 
L 869.544734 350.580308 
z
" clip-path="url(#p2ea9cec110)" style="fill: #9c27b0"/>
    <path d="M 869.678157 144.148565 
L 858.988853 130.408592 
L 846.444125 117.854663 
L 860.774667 95.235966 
L 877.171 70.946114 
L 896.446967 42.962102 
L 922.497307 4.773259 
L 918.66095 42.909391 
L 927.597531 70.015133 
L 946.90345 88.616297 
L 976.590239 97.487303 
L 946.303296 107.716589 
L 924.036715 124.474842 
L 906.152078 144.793244 
L 891.114044 167.320051 
L 880.223612 156.848135 
z
" clip-path="url(#p2ea9cec110)" style="fill: #9c27b0"/>
    <path d="M 919.190736 525.95969 
L 923.062108 564.026741 
L 896.983804 526.041674 
L 877.728433 498.218505 
L 861.312679 474.12054 
L 846.949771 451.738675 
L 859.507656 439.138576 
L 870.096843 425.245323 
L 880.51708 412.367024 
L 891.296497 401.703836 
L 906.416019 424.093668 
L 924.351396 444.244037 
L 946.647046 460.793148 
L 976.907217 470.769526 
L 947.289498 479.987198 
L 928.074771 498.785729 
z
" clip-path="url(#p2ea9cec110)" style="fill: #9c27b0"/>
   </g>
   <g id="LineCollection_1">
    <path d="M 7.692783 470.769526 
L 61.391597 461.297063 
" clip-path="url(#p2ea9cec110)" style="fill: none; stroke: #e1e1e1"/>
    <path d="M 7.692783 470.769526 
L 45.920021 483.596558 
" clip-path="url(#p2ea9cec110)" style="fill: none; stroke: #e1e1e1"/>
    <path d="M 7.692783 470.769526 
L 53.7436 448.517822 
" clip-path="url(#p2ea9cec110)" style="fill: none; stroke: #e1e1e1"/>
    <path d="M 116.930951 383.767289 
L 102.933823 406.127855 
" clip-path="url(#p2ea9cec110)" style="fill: none; stroke: #e1e1e1"/>
    <path d="M 116.930951 383.767289 
L 132.993343 383.036332 
" clip-path="url(#p2ea9cec110)" style="fill: none; stroke: #e1e1e1"/>
    <path d="M 116.930951 383.767289 
L 125.990708 360.339978 
" clip-path="url(#p2ea9cec110)" style="fill: none; stroke: #e1e1e1"/>
    <path d="M 61.658056 564.026741 
L 85.878449 539.512998 
" clip-path="url(#p2ea9cec110)" style="fill: none; stroke: #e1e1e1"/>
    <path d="M 61.658056 564.026741 
L 70.417925 531.821461 
" clip-path="url(#p2ea9cec110)" style="fill: none; stroke: #e1e1e1"/>
    <path d="M 159.42608 446.817515 
L 130.62226 450.089218 
" clip-path="url(#p2ea9cec110)" style="fill: none; stroke: #e1e1e1"/>
    <path d="M 159.42608 446.817515 
L 158.08281 463.967797 
" clip-path="url(#p2ea9cec110)" style="fill: none; stroke: #e1e1e1"/>
    <path d="M 159.42608 446.817515 
L 166.57866 429.90227 
" clip-path="url(#p2ea9cec110)" style="fill: none; stroke: #e1e1e1"/>
    <path d="M 159.42608 446.817515 
L 186.721395 444.795477 
" clip-path="url(#p2ea9cec110)" style="fill: none; stroke: #e1e1e1"/>
    <path d="M 115.382987 284.255115 
L 128.230829 310.803578 
" clip-path="url(#p2ea9cec110)" style="fill: none; stroke: #e1e1e1"/>
    <path d="M 115.382987 284.255115 
L 141.95921 299.362321 
" clip-path="url(#p2ea9cec110)" style="fill: none; stroke: #e1e1e1"/>
    <path d="M 189.980955 376.466585 
L 170.202527 378.411704 
" clip-path="url(#p2ea9cec110)" style="fill: none; stroke: #e1e1e1"/>
    <path d="M 189.980955 376.466585 
L 183.553502 395.036615 
" clip-path="url(#p2ea9cec110)" style="fill: none; stroke: #e1e1e1"/>
    <path d="M 189.980955 376.466585 
L 196.206263 357.578832 
" clip-path="url(#p2ea9cec110)" style="fill: none; stroke: #e1e1e1"/>
    <path d="M 189.980955 376.466585 
L 209.749274 375.322919 
" clip-path="url(#p2ea9cec110)" style="fill: none; stroke: #e1e1e1"/>
    <path d="M 163.047763 510.35593 
L 162.181414 495.814075 
" clip-path="url(#p2ea9cec110)" style="fill: none; stroke: #e1e1e1"/>
    <path d="M 163.047763 510.35593 
L 136.761654 516.08613 
" clip-path="url(#p2ea9cec110)" style="fill: none; stroke: #e1e1e1"/>
    <path d="M 163.047763 510.35593 
L 189.626317 507.080323 
" clip-path="url(#p2ea9cec110)" style="fill: none; stroke: #e1e1e1"/>
    <path d="M 263.044616 445.706667 
L 238.404135 444.376642 
" clip-path="url(#p2ea9cec110)" style="fill: none; stroke: #e1e1e1"/>
    <path d="M 263.044616 445.706667 
L 261.289524 462.77437 
" clip-path="url(#p2ea9cec110)" style="fill: none; stroke: #e1e1e1"/>
    <path d="M 263.044616 445.706667 
L 268.543135 428.859682 
" clip-path="url(#p2ea9cec110)" style="fill: none; stroke: #e1e1e1"/>
    <path d="M 263.044616 445.706667 
L 286.689661 448.024945 
" clip-path="url(#p2ea9cec110)" style="fill: none; stroke: #e1e1e1"/>
    <path d="M 223.00738 284.255115 
L 195.471434 299.454823 
" clip-path="url(#p2ea9cec110)" style="fill: none; stroke: #e1e1e1"/>
    <path d="M 223.00738 284.255115 
L 210.660762 314.774695 
" clip-path="url(#p2ea9cec110)" style="fill: none; stroke: #e1e1e1"/>
    <path d="M 223.00738 284.255115 
L 228.076445 314.68617 
" clip-path="url(#p2ea9cec110)" style="fill: none; stroke: #e1e1e1"/>
    <path d="M 276.786671 377.512311 
L 251.488153 374.896653 
" clip-path="url(#p2ea9cec110)" style="fill: none; stroke: #e1e1e1"/>
    <path d="M 276.786671 377.512311 
L 281.369542 394.85161 
" clip-path="url(#p2ea9cec110)" style="fill: none; stroke: #e1e1e1"/>
    <path d="M 276.786671 377.512311 
L 255.021464 359.127873 
" clip-path="url(#p2ea9cec110)" style="fill: none; stroke: #e1e1e1"/>
    <path d="M 276.786671 377.512311 
L 321.869585 377.591427 
" clip-path="url(#p2ea9cec110)" style="fill: none; stroke: #e1e1e1"/>
    <path d="M 276.786671 377.512311 
L 323.013554 362.202722 
" clip-path="url(#p2ea9cec110)" style="fill: none; stroke: #e1e1e1"/>
    <path d="M 270.241833 509.032852 
L 266.095572 494.815299 
" clip-path="url(#p2ea9cec110)" style="fill: none; stroke: #e1e1e1"/>
    <path d="M 270.241833 509.032852 
L 243.211961 506.480662 
" clip-path="url(#p2ea9cec110)" style="fill: none; stroke: #e1e1e1"/>
    <path d="M 270.241833 509.032852 
L 297.560574 513.988804 
" clip-path="url(#p2ea9cec110)" style="fill: none; stroke: #e1e1e1"/>
    <path d="M 345.835882 458.757699 
L 328.966703 455.188337 
" clip-path="url(#p2ea9cec110)" style="fill: none; stroke: #e1e1e1"/>
    <path d="M 345.835882 458.757699 
L 351.749753 475.027384 
" clip-path="url(#p2ea9cec110)" style="fill: none; stroke: #e1e1e1"/>
    <path d="M 345.835882 458.757699 
L 356.944551 445.688366 
" clip-path="url(#p2ea9cec110)" style="fill: none; stroke: #e1e1e1"/>
    <path d="M 403.18727 307.156451 
L 381.618715 326.779421 
" clip-path="url(#p2ea9cec110)" style="fill: none; stroke: #e1e1e1"/>
    <path d="M 403.18727 307.156451 
L 418.542108 307.546139 
" clip-path="url(#p2ea9cec110)" style="fill: none; stroke: #e1e1e1"/>
    <path d="M 403.18727 307.156451 
L 421.395268 286.158943 
" clip-path="url(#p2ea9cec110)" style="fill: none; stroke: #e1e1e1"/>
    <path d="M 467.280579 220.790403 
L 453.062523 242.922515 
" clip-path="url(#p2ea9cec110)" style="fill: none; stroke: #e1e1e1"/>
    <path d="M 467.280579 220.790403 
L 480.771665 223.851404 
" clip-path="url(#p2ea9cec110)" style="fill: none; stroke: #e1e1e1"/>
    <path d="M 467.280579 220.790403 
L 480.34824 197.994204 
" clip-path="url(#p2ea9cec110)" style="fill: none; stroke: #e1e1e1"/>
    <path d="M 414.859264 393.683458 
L 384.939315 386.352425 
" clip-path="url(#p2ea9cec110)" style="fill: none; stroke: #e1e1e1"/>
    <path d="M 414.859264 393.683458 
L 389.649377 412.677194 
" clip-path="url(#p2ea9cec110)" style="fill: none; stroke: #e1e1e1"/>
    <path d="M 414.859264 393.683458 
L 428.697318 368.644098 
" clip-path="url(#p2ea9cec110)" style="fill: none; stroke: #e1e1e1"/>
    <path d="M 414.859264 393.683458 
L 425.044626 416.174515 
" clip-path="url(#p2ea9cec110)" style="fill: none; stroke: #e1e1e1"/>
    <path d="M 414.859264 393.683458 
L 447.325741 387.38949 
" clip-path="url(#p2ea9cec110)" style="fill: none; stroke: #e1e1e1"/>
    <path d="M 384.531251 564.026741 
L 368.980706 523.79872 
" clip-path="url(#p2ea9cec110)" style="fill: none; stroke: #e1e1e1"/>
    <path d="M 384.531251 564.026741 
L 353.590925 537.45657 
" clip-path="url(#p2ea9cec110)" style="fill: none; stroke: #e1e1e1"/>
    <path d="M 384.531251 564.026741 
L 390.516517 527.463635 
" clip-path="url(#p2ea9cec110)" style="fill: none; stroke: #e1e1e1"/>
    <path d="M 511.452364 126.492814 
L 503.27059 151.209631 
" clip-path="url(#p2ea9cec110)" style="fill: none; stroke: #e1e1e1"/>
    <path d="M 511.452364 126.492814 
L 525.145366 133.621883 
" clip-path="url(#p2ea9cec110)" style="fill: none; stroke: #e1e1e1"/>
    <path d="M 511.452364 126.492814 
L 516.290562 100.433293 
" clip-path="url(#p2ea9cec110)" style="fill: none; stroke: #e1e1e1"/>
    <path d="M 471.709296 307.295388 
L 453.313028 307.889459 
" clip-path="url(#p2ea9cec110)" style="fill: none; stroke: #e1e1e1"/>
    <path d="M 471.709296 307.295388 
L 457.487832 326.685088 
" clip-path="url(#p2ea9cec110)" style="fill: none; stroke: #e1e1e1"/>
    <path d="M 471.709296 307.295388 
L 485.602856 288.542478 
" clip-path="url(#p2ea9cec110)" style="fill: none; stroke: #e1e1e1"/>
    <path d="M 471.709296 307.295388 
L 490.207233 304.732092 
" clip-path="url(#p2ea9cec110)" style="fill: none; stroke: #e1e1e1"/>
    <path d="M 438.376333 470.769526 
L 437.635768 454.022501 
" clip-path="url(#p2ea9cec110)" style="fill: none; stroke: #e1e1e1"/>
    <path d="M 438.376333 470.769526 
L 419.225691 483.502699 
" clip-path="url(#p2ea9cec110)" style="fill: none; stroke: #e1e1e1"/>
    <path d="M 438.376333 470.769526 
L 463.625943 461.085783 
" clip-path="url(#p2ea9cec110)" style="fill: none; stroke: #e1e1e1"/>
    <path d="M 523.227484 230.665975 
L 509.220954 227.971613 
" clip-path="url(#p2ea9cec110)" style="fill: none; stroke: #e1e1e1"/>
    <path d="M 523.227484 230.665975 
L 511.069998 250.640722 
" clip-path="url(#p2ea9cec110)" style="fill: none; stroke: #e1e1e1"/>
    <path d="M 523.227484 230.665975 
L 536.40195 210.874771 
" clip-path="url(#p2ea9cec110)" style="fill: none; stroke: #e1e1e1"/>
    <path d="M 523.227484 230.665975 
L 533.303542 240.12857 
" clip-path="url(#p2ea9cec110)" style="fill: none; stroke: #e1e1e1"/>
    <path d="M 491.999762 4.773259 
L 509.17042 42.080007 
" clip-path="url(#p2ea9cec110)" style="fill: none; stroke: #e1e1e1"/>
    <path d="M 491.999762 4.773259 
L 518.57232 35.755864 
" clip-path="url(#p2ea9cec110)" style="fill: none; stroke: #e1e1e1"/>
    <path d="M 523.75917 377.975433 
L 528.315287 357.074862 
" clip-path="url(#p2ea9cec110)" style="fill: none; stroke: #e1e1e1"/>
    <path d="M 523.75917 377.975433 
L 500.415899 379.937473 
" clip-path="url(#p2ea9cec110)" style="fill: none; stroke: #e1e1e1"/>
    <path d="M 523.75917 377.975433 
L 524.264704 398.358961 
" clip-path="url(#p2ea9cec110)" style="fill: none; stroke: #e1e1e1"/>
    <path d="M 523.75917 377.975433 
L 545.136226 378.024654 
" clip-path="url(#p2ea9cec110)" style="fill: none; stroke: #e1e1e1"/>
    <path d="M 545.8867 284.244447 
L 527.047497 294.958471 
" clip-path="url(#p2ea9cec110)" style="fill: none; stroke: #e1e1e1"/>
    <path d="M 545.8867 284.244447 
L 541.779998 312.065091 
" clip-path="url(#p2ea9cec110)" style="fill: none; stroke: #e1e1e1"/>
    <path d="M 545.8867 284.244447 
L 544.496801 266.170677 
" clip-path="url(#p2ea9cec110)" style="fill: none; stroke: #e1e1e1"/>
    <path d="M 545.8867 284.244447 
L 558.68677 261.043916 
" clip-path="url(#p2ea9cec110)" style="fill: none; stroke: #e1e1e1"/>
    <path d="M 545.8867 284.244447 
L 568.643833 299.05857 
" clip-path="url(#p2ea9cec110)" style="fill: none; stroke: #e1e1e1"/>
    <path d="M 581.26359 147.498045 
L 559.654976 144.386502 
" clip-path="url(#p2ea9cec110)" style="fill: none; stroke: #e1e1e1"/>
    <path d="M 581.26359 147.498045 
L 564.72328 169.900062 
" clip-path="url(#p2ea9cec110)" style="fill: none; stroke: #e1e1e1"/>
    <path d="M 581.26359 147.498045 
L 586.62409 122.78888 
" clip-path="url(#p2ea9cec110)" style="fill: none; stroke: #e1e1e1"/>
    <path d="M 581.26359 147.498045 
L 590.617571 166.252956 
" clip-path="url(#p2ea9cec110)" style="fill: none; stroke: #e1e1e1"/>
    <path d="M 581.26359 147.498045 
L 604.602421 136.603598 
" clip-path="url(#p2ea9cec110)" style="fill: none; stroke: #e1e1e1"/>
    <path d="M 546.186705 470.769526 
L 536.156476 441.112175 
" clip-path="url(#p2ea9cec110)" style="fill: none; stroke: #e1e1e1"/>
    <path d="M 546.186705 470.769526 
L 517.59169 458.695631 
" clip-path="url(#p2ea9cec110)" style="fill: none; stroke: #e1e1e1"/>
    <path d="M 546.186705 470.769526 
L 566.939861 442.914722 
" clip-path="url(#p2ea9cec110)" style="fill: none; stroke: #e1e1e1"/>
    <path d="M 546.186705 470.769526 
L 583.444012 468.325273 
" clip-path="url(#p2ea9cec110)" style="fill: none; stroke: #e1e1e1"/>
    <path d="M 546.186705 470.769526 
L 575.330469 488.86655 
" clip-path="url(#p2ea9cec110)" style="fill: none; stroke: #e1e1e1"/>
    <path d="M 599.744316 191.287703 
L 608.974528 195.982248 
" clip-path="url(#p2ea9cec110)" style="fill: none; stroke: #e1e1e1"/>
    <path d="M 599.744316 191.287703 
L 584.942397 216.50548 
" clip-path="url(#p2ea9cec110)" style="fill: none; stroke: #e1e1e1"/>
    <path d="M 599.744316 191.287703 
L 628.95538 200.884107 
" clip-path="url(#p2ea9cec110)" style="fill: none; stroke: #e1e1e1"/>
    <path d="M 599.744316 191.287703 
L 623.793464 213.97118 
" clip-path="url(#p2ea9cec110)" style="fill: none; stroke: #e1e1e1"/>
    <path d="M 595.506728 65.459506 
L 569.205975 63.389837 
" clip-path="url(#p2ea9cec110)" style="fill: none; stroke: #e1e1e1"/>
    <path d="M 595.506728 65.459506 
L 593.422419 81.976325 
" clip-path="url(#p2ea9cec110)" style="fill: none; stroke: #e1e1e1"/>
    <path d="M 595.506728 65.459506 
L 622.12647 61.841612 
" clip-path="url(#p2ea9cec110)" style="fill: none; stroke: #e1e1e1"/>
    <path d="M 605.344152 379.061077 
L 614.966673 357.212855 
" clip-path="url(#p2ea9cec110)" style="fill: none; stroke: #e1e1e1"/>
    <path d="M 605.344152 379.061077 
L 585.152373 378.683919 
" clip-path="url(#p2ea9cec110)" style="fill: none; stroke: #e1e1e1"/>
    <path d="M 605.344152 379.061077 
L 594.110252 399.757106 
" clip-path="url(#p2ea9cec110)" style="fill: none; stroke: #e1e1e1"/>
    <path d="M 605.344152 379.061077 
L 626.096519 381.268813 
" clip-path="url(#p2ea9cec110)" style="fill: none; stroke: #e1e1e1"/>
    <path d="M 599.947314 563.673066 
L 622.517851 546.966391 
" clip-path="url(#p2ea9cec110)" style="fill: none; stroke: #e1e1e1"/>
    <path d="M 599.947314 563.673066 
L 602.050343 535.502764 
" clip-path="url(#p2ea9cec110)" style="fill: none; stroke: #e1e1e1"/>
    <path d="M 658.345958 111.299104 
L 643.212292 118.745217 
" clip-path="url(#p2ea9cec110)" style="fill: none; stroke: #e1e1e1"/>
    <path d="M 658.345958 111.299104 
L 665.778199 125.546147 
" clip-path="url(#p2ea9cec110)" style="fill: none; stroke: #e1e1e1"/>
    <path d="M 658.345958 111.299104 
L 666.236811 95.399469 
" clip-path="url(#p2ea9cec110)" style="fill: none; stroke: #e1e1e1"/>
    <path d="M 649.908392 471.432095 
L 657.123321 456.301073 
" clip-path="url(#p2ea9cec110)" style="fill: none; stroke: #e1e1e1"/>
    <path d="M 649.908392 471.432095 
L 632.56084 469.590306 
" clip-path="url(#p2ea9cec110)" style="fill: none; stroke: #e1e1e1"/>
    <path d="M 649.908392 471.432095 
L 660.571666 485.489213 
" clip-path="url(#p2ea9cec110)" style="fill: none; stroke: #e1e1e1"/>
    <path d="M 653.52957 284.233806 
L 622.80913 298.794759 
" clip-path="url(#p2ea9cec110)" style="fill: none; stroke: #e1e1e1"/>
    <path d="M 653.52957 284.233806 
L 635.87375 310.562208 
" clip-path="url(#p2ea9cec110)" style="fill: none; stroke: #e1e1e1"/>
    <path d="M 653.52957 284.233806 
L 664.650877 289.225302 
" clip-path="url(#p2ea9cec110)" style="fill: none; stroke: #e1e1e1"/>
    <path d="M 653.52957 284.233806 
L 647.986784 260.543241 
" clip-path="url(#p2ea9cec110)" style="fill: none; stroke: #e1e1e1"/>
    <path d="M 693.467032 180.135225 
L 674.253049 191.432137 
" clip-path="url(#p2ea9cec110)" style="fill: none; stroke: #e1e1e1"/>
    <path d="M 693.467032 180.135225 
L 683.3936 160.383842 
" clip-path="url(#p2ea9cec110)" style="fill: none; stroke: #e1e1e1"/>
    <path d="M 693.467032 180.135225 
L 703.679402 201.935949 
" clip-path="url(#p2ea9cec110)" style="fill: none; stroke: #e1e1e1"/>
    <path d="M 693.467032 180.135225 
L 710.629467 164.769483 
" clip-path="url(#p2ea9cec110)" style="fill: none; stroke: #e1e1e1"/>
    <path d="M 707.248561 4.773259 
L 676.493558 34.825031 
" clip-path="url(#p2ea9cec110)" style="fill: none; stroke: #e1e1e1"/>
    <path d="M 707.248561 4.773259 
L 688.540186 46.62165 
" clip-path="url(#p2ea9cec110)" style="fill: none; stroke: #e1e1e1"/>
    <path d="M 707.248561 4.773259 
L 709.686221 44.07602 
" clip-path="url(#p2ea9cec110)" style="fill: none; stroke: #e1e1e1"/>
    <path d="M 688.045114 398.626232 
L 676.930545 419.572255 
" clip-path="url(#p2ea9cec110)" style="fill: none; stroke: #e1e1e1"/>
    <path d="M 688.045114 398.626232 
L 667.977079 389.949389 
" clip-path="url(#p2ea9cec110)" style="fill: none; stroke: #e1e1e1"/>
    <path d="M 688.045114 398.626232 
L 698.67452 375.480433 
" clip-path="url(#p2ea9cec110)" style="fill: none; stroke: #e1e1e1"/>
    <path d="M 688.045114 398.626232 
L 706.474236 411.499012 
" clip-path="url(#p2ea9cec110)" style="fill: none; stroke: #e1e1e1"/>
    <path d="M 707.422657 563.673066 
L 687.858702 528.414361 
" clip-path="url(#p2ea9cec110)" style="fill: none; stroke: #e1e1e1"/>
    <path d="M 707.422657 563.673066 
L 676.190043 546.429838 
" clip-path="url(#p2ea9cec110)" style="fill: none; stroke: #e1e1e1"/>
    <path d="M 707.422657 563.673066 
L 708.869099 527.000805 
" clip-path="url(#p2ea9cec110)" style="fill: none; stroke: #e1e1e1"/>
    <path d="M 761.143907 97.909696 
L 736.280702 91.456116 
" clip-path="url(#p2ea9cec110)" style="fill: none; stroke: #e1e1e1"/>
    <path d="M 761.143907 97.909696 
L 742.931081 124.948266 
" clip-path="url(#p2ea9cec110)" style="fill: none; stroke: #e1e1e1"/>
    <path d="M 761.143907 97.909696 
L 769.920548 130.643091 
" clip-path="url(#p2ea9cec110)" style="fill: none; stroke: #e1e1e1"/>
    <path d="M 761.143907 97.909696 
L 789.347326 104.585486 
" clip-path="url(#p2ea9cec110)" style="fill: none; stroke: #e1e1e1"/>
    <path d="M 761.143907 97.909696 
L 786.200585 80.217511 
" clip-path="url(#p2ea9cec110)" style="fill: none; stroke: #e1e1e1"/>
    <path d="M 729.176185 287.663077 
L 721.702482 254.221855 
" clip-path="url(#p2ea9cec110)" style="fill: none; stroke: #e1e1e1"/>
    <path d="M 729.176185 287.663077 
L 703.218345 288.690287 
" clip-path="url(#p2ea9cec110)" style="fill: none; stroke: #e1e1e1"/>
    <path d="M 729.176185 287.663077 
L 719.212162 321.554956 
" clip-path="url(#p2ea9cec110)" style="fill: none; stroke: #e1e1e1"/>
    <path d="M 729.176185 287.663077 
L 749.85518 263.689279 
" clip-path="url(#p2ea9cec110)" style="fill: none; stroke: #e1e1e1"/>
    <path d="M 729.176185 287.663077 
L 749.525319 310.248032 
" clip-path="url(#p2ea9cec110)" style="fill: none; stroke: #e1e1e1"/>
    <path d="M 761.267766 470.415856 
L 741.444358 446.646552 
" clip-path="url(#p2ea9cec110)" style="fill: none; stroke: #e1e1e1"/>
    <path d="M 761.267766 470.415856 
L 736.254112 479.805185 
" clip-path="url(#p2ea9cec110)" style="fill: none; stroke: #e1e1e1"/>
    <path d="M 761.267766 470.415856 
L 769.684842 439.234615 
" clip-path="url(#p2ea9cec110)" style="fill: none; stroke: #e1e1e1"/>
    <path d="M 761.267766 470.415856 
L 786.449328 488.36176 
" clip-path="url(#p2ea9cec110)" style="fill: none; stroke: #e1e1e1"/>
    <path d="M 761.267766 470.415856 
L 789.570673 464.548974 
" clip-path="url(#p2ea9cec110)" style="fill: none; stroke: #e1e1e1"/>
    <path d="M 814.872934 4.773259 
L 813.873456 33.741027 
" clip-path="url(#p2ea9cec110)" style="fill: none; stroke: #e1e1e1"/>
    <path d="M 814.872934 4.773259 
L 834.802346 24.205762 
" clip-path="url(#p2ea9cec110)" style="fill: none; stroke: #e1e1e1"/>
    <path d="M 798.080827 200.629919 
L 787.53766 179.13722 
" clip-path="url(#p2ea9cec110)" style="fill: none; stroke: #e1e1e1"/>
    <path d="M 798.080827 200.629919 
L 783.719837 221.199564 
" clip-path="url(#p2ea9cec110)" style="fill: none; stroke: #e1e1e1"/>
    <path d="M 798.080827 200.629919 
L 810.203609 179.942783 
" clip-path="url(#p2ea9cec110)" style="fill: none; stroke: #e1e1e1"/>
    <path d="M 798.080827 200.629919 
L 811.490557 220.829182 
" clip-path="url(#p2ea9cec110)" style="fill: none; stroke: #e1e1e1"/>
    <path d="M 798.196801 370.24013 
L 783.615772 350.523109 
" clip-path="url(#p2ea9cec110)" style="fill: none; stroke: #e1e1e1"/>
    <path d="M 798.196801 370.24013 
L 787.355151 391.638639 
" clip-path="url(#p2ea9cec110)" style="fill: none; stroke: #e1e1e1"/>
    <path d="M 798.196801 370.24013 
L 811.657721 349.770525 
" clip-path="url(#p2ea9cec110)" style="fill: none; stroke: #e1e1e1"/>
    <path d="M 798.196801 370.24013 
L 810.442375 390.433669 
" clip-path="url(#p2ea9cec110)" style="fill: none; stroke: #e1e1e1"/>
    <path d="M 815.437683 564.026741 
L 835.39739 544.726157 
" clip-path="url(#p2ea9cec110)" style="fill: none; stroke: #e1e1e1"/>
    <path d="M 815.437683 564.026741 
L 814.327369 535.033186 
" clip-path="url(#p2ea9cec110)" style="fill: none; stroke: #e1e1e1"/>
    <path d="M 846.444125 117.854663 
L 860.774667 95.235966 
" clip-path="url(#p2ea9cec110)" style="fill: none; stroke: #e1e1e1"/>
    <path d="M 846.444125 117.854663 
L 829.72577 111.65403 
" clip-path="url(#p2ea9cec110)" style="fill: none; stroke: #e1e1e1"/>
    <path d="M 846.444125 117.854663 
L 833.405972 139.020715 
" clip-path="url(#p2ea9cec110)" style="fill: none; stroke: #e1e1e1"/>
    <path d="M 846.444125 117.854663 
L 858.988853 130.408592 
" clip-path="url(#p2ea9cec110)" style="fill: none; stroke: #e1e1e1"/>
    <path d="M 868.865076 284.062311 
L 844.958425 261.32115 
" clip-path="url(#p2ea9cec110)" style="fill: none; stroke: #e1e1e1"/>
    <path d="M 868.865076 284.062311 
L 845.133456 308.090585 
" clip-path="url(#p2ea9cec110)" style="fill: none; stroke: #e1e1e1"/>
    <path d="M 868.865076 284.062311 
L 865.01862 248.402513 
" clip-path="url(#p2ea9cec110)" style="fill: none; stroke: #e1e1e1"/>
    <path d="M 868.865076 284.062311 
L 864.980361 320.36229 
" clip-path="url(#p2ea9cec110)" style="fill: none; stroke: #e1e1e1"/>
    <path d="M 846.949771 451.738675 
L 830.122979 457.803814 
" clip-path="url(#p2ea9cec110)" style="fill: none; stroke: #e1e1e1"/>
    <path d="M 846.949771 451.738675 
L 861.312679 474.12054 
" clip-path="url(#p2ea9cec110)" style="fill: none; stroke: #e1e1e1"/>
    <path d="M 846.949771 451.738675 
L 833.784175 430.807745 
" clip-path="url(#p2ea9cec110)" style="fill: none; stroke: #e1e1e1"/>
    <path d="M 846.949771 451.738675 
L 859.507656 439.138576 
" clip-path="url(#p2ea9cec110)" style="fill: none; stroke: #e1e1e1"/>
    <path d="M 891.114044 167.320051 
L 880.223612 156.848135 
" clip-path="url(#p2ea9cec110)" style="fill: none; stroke: #e1e1e1"/>
    <path d="M 891.114044 167.320051 
L 878.889574 191.770477 
" clip-path="url(#p2ea9cec110)" style="fill: none; stroke: #e1e1e1"/>
    <path d="M 891.114044 167.320051 
L 906.152078 144.793244 
" clip-path="url(#p2ea9cec110)" style="fill: none; stroke: #e1e1e1"/>
    <path d="M 922.497307 4.773259 
L 888.369134 24.953203 
" clip-path="url(#p2ea9cec110)" style="fill: none; stroke: #e1e1e1"/>
    <path d="M 922.497307 4.773259 
L 896.446967 42.962102 
" clip-path="url(#p2ea9cec110)" style="fill: none; stroke: #e1e1e1"/>
    <path d="M 922.497307 4.773259 
L 918.66095 42.909391 
" clip-path="url(#p2ea9cec110)" style="fill: none; stroke: #e1e1e1"/>
    <path d="M 891.296497 401.703836 
L 878.855974 377.327454 
" clip-path="url(#p2ea9cec110)" style="fill: none; stroke: #e1e1e1"/>
    <path d="M 891.296497 401.703836 
L 880.51708 412.367024 
" clip-path="url(#p2ea9cec110)" style="fill: none; stroke: #e1e1e1"/>
    <path d="M 891.296497 401.703836 
L 906.416019 424.093668 
" clip-path="url(#p2ea9cec110)" style="fill: none; stroke: #e1e1e1"/>
    <path d="M 923.062108 564.026741 
L 896.983804 526.041674 
" clip-path="url(#p2ea9cec110)" style="fill: none; stroke: #e1e1e1"/>
    <path d="M 923.062108 564.026741 
L 888.9324 544.007139 
" clip-path="url(#p2ea9cec110)" style="fill: none; stroke: #e1e1e1"/>
    <path d="M 923.062108 564.026741 
L 919.190736 525.95969 
" clip-path="url(#p2ea9cec110)" style="fill: none; stroke: #e1e1e1"/>
    <path d="M 976.590239 97.487303 
L 946.90345 88.616297 
" clip-path="url(#p2ea9cec110)" style="fill: none; stroke: #e1e1e1"/>
    <path d="M 976.590239 97.487303 
L 946.303296 107.716589 
" clip-path="url(#p2ea9cec110)" style="fill: none; stroke: #e1e1e1"/>
    <path d="M 976.907217 470.769526 
L 946.647046 460.793148 
" clip-path="url(#p2ea9cec110)" style="fill: none; stroke: #e1e1e1"/>
    <path d="M 976.907217 470.769526 
L 947.289498 479.987198 
" clip-path="url(#p2ea9cec110)" style="fill: none; stroke: #e1e1e1"/>
    <path d="M 82.881947 427.54666 
L 53.7436 448.517822 
" clip-path="url(#p2ea9cec110)" style="fill: none; stroke: #e1e1e1"/>
    <path d="M 82.881947 427.54666 
L 102.933823 406.127855 
" clip-path="url(#p2ea9cec110)" style="fill: none; stroke: #e1e1e1"/>
    <path d="M 65.35896 504.746926 
L 70.417925 531.821461 
" clip-path="url(#p2ea9cec110)" style="fill: none; stroke: #e1e1e1"/>
    <path d="M 65.35896 504.746926 
L 45.920021 483.596558 
" clip-path="url(#p2ea9cec110)" style="fill: none; stroke: #e1e1e1"/>
    <path d="M 99.021365 454.725607 
L 61.391597 461.297063 
" clip-path="url(#p2ea9cec110)" style="fill: none; stroke: #e1e1e1"/>
    <path d="M 99.021365 454.725607 
L 130.62226 450.089218 
" clip-path="url(#p2ea9cec110)" style="fill: none; stroke: #e1e1e1"/>
    <path d="M 130.364226 336.037004 
L 125.990708 360.339978 
" clip-path="url(#p2ea9cec110)" style="fill: none; stroke: #e1e1e1"/>
    <path d="M 130.364226 336.037004 
L 128.230829 310.803578 
" clip-path="url(#p2ea9cec110)" style="fill: none; stroke: #e1e1e1"/>
    <path d="M 151.00989 381.022171 
L 132.993343 383.036332 
" clip-path="url(#p2ea9cec110)" style="fill: none; stroke: #e1e1e1"/>
    <path d="M 151.00989 381.022171 
L 170.202527 378.411704 
" clip-path="url(#p2ea9cec110)" style="fill: none; stroke: #e1e1e1"/>
    <path d="M 110.942187 525.064365 
L 136.761654 516.08613 
" clip-path="url(#p2ea9cec110)" style="fill: none; stroke: #e1e1e1"/>
    <path d="M 110.942187 525.064365 
L 85.878449 539.512998 
" clip-path="url(#p2ea9cec110)" style="fill: none; stroke: #e1e1e1"/>
    <path d="M 212.975024 444.011145 
L 186.721395 444.795477 
" clip-path="url(#p2ea9cec110)" style="fill: none; stroke: #e1e1e1"/>
    <path d="M 212.975024 444.011145 
L 238.404135 444.376642 
" clip-path="url(#p2ea9cec110)" style="fill: none; stroke: #e1e1e1"/>
    <path d="M 175.378095 412.824206 
L 183.553502 395.036615 
" clip-path="url(#p2ea9cec110)" style="fill: none; stroke: #e1e1e1"/>
    <path d="M 175.378095 412.824206 
L 166.57866 429.90227 
" clip-path="url(#p2ea9cec110)" style="fill: none; stroke: #e1e1e1"/>
    <path d="M 160.110068 480.289291 
L 158.08281 463.967797 
" clip-path="url(#p2ea9cec110)" style="fill: none; stroke: #e1e1e1"/>
    <path d="M 160.110068 480.289291 
L 162.181414 495.814075 
" clip-path="url(#p2ea9cec110)" style="fill: none; stroke: #e1e1e1"/>
    <path d="M 168.577349 303.707189 
L 141.95921 299.362321 
" clip-path="url(#p2ea9cec110)" style="fill: none; stroke: #e1e1e1"/>
    <path d="M 168.577349 303.707189 
L 195.471434 299.454823 
" clip-path="url(#p2ea9cec110)" style="fill: none; stroke: #e1e1e1"/>
    <path d="M 202.736582 337.636494 
L 210.660762 314.774695 
" clip-path="url(#p2ea9cec110)" style="fill: none; stroke: #e1e1e1"/>
    <path d="M 202.736582 337.636494 
L 196.206263 357.578832 
" clip-path="url(#p2ea9cec110)" style="fill: none; stroke: #e1e1e1"/>
    <path d="M 229.889505 374.845774 
L 209.749274 375.322919 
" clip-path="url(#p2ea9cec110)" style="fill: none; stroke: #e1e1e1"/>
    <path d="M 229.889505 374.845774 
L 251.488153 374.896653 
" clip-path="url(#p2ea9cec110)" style="fill: none; stroke: #e1e1e1"/>
    <path d="M 216.333303 505.79753 
L 189.626317 507.080323 
" clip-path="url(#p2ea9cec110)" style="fill: none; stroke: #e1e1e1"/>
    <path d="M 216.333303 505.79753 
L 243.211961 506.480662 
" clip-path="url(#p2ea9cec110)" style="fill: none; stroke: #e1e1e1"/>
    <path d="M 275.540797 412.101696 
L 268.543135 428.859682 
" clip-path="url(#p2ea9cec110)" style="fill: none; stroke: #e1e1e1"/>
    <path d="M 275.540797 412.101696 
L 281.369542 394.85161 
" clip-path="url(#p2ea9cec110)" style="fill: none; stroke: #e1e1e1"/>
    <path d="M 262.678179 479.303549 
L 261.289524 462.77437 
" clip-path="url(#p2ea9cec110)" style="fill: none; stroke: #e1e1e1"/>
    <path d="M 262.678179 479.303549 
L 266.095572 494.815299 
" clip-path="url(#p2ea9cec110)" style="fill: none; stroke: #e1e1e1"/>
    <path d="M 308.907321 451.322708 
L 286.689661 448.024945 
" clip-path="url(#p2ea9cec110)" style="fill: none; stroke: #e1e1e1"/>
    <path d="M 308.907321 451.322708 
L 328.966703 455.188337 
" clip-path="url(#p2ea9cec110)" style="fill: none; stroke: #e1e1e1"/>
    <path d="M 239.355773 338.417519 
L 228.076445 314.68617 
" clip-path="url(#p2ea9cec110)" style="fill: none; stroke: #e1e1e1"/>
    <path d="M 239.355773 338.417519 
L 255.021464 359.127873 
" clip-path="url(#p2ea9cec110)" style="fill: none; stroke: #e1e1e1"/>
    <path d="M 355.817909 345.207116 
L 323.013554 362.202722 
" clip-path="url(#p2ea9cec110)" style="fill: none; stroke: #e1e1e1"/>
    <path d="M 355.817909 345.207116 
L 381.618715 326.779421 
" clip-path="url(#p2ea9cec110)" style="fill: none; stroke: #e1e1e1"/>
    <path d="M 355.297405 381.023891 
L 321.869585 377.591427 
" clip-path="url(#p2ea9cec110)" style="fill: none; stroke: #e1e1e1"/>
    <path d="M 355.297405 381.023891 
L 384.939315 386.352425 
" clip-path="url(#p2ea9cec110)" style="fill: none; stroke: #e1e1e1"/>
    <path d="M 325.229152 522.606487 
L 353.590925 537.45657 
" clip-path="url(#p2ea9cec110)" style="fill: none; stroke: #e1e1e1"/>
    <path d="M 325.229152 522.606487 
L 297.560574 513.988804 
" clip-path="url(#p2ea9cec110)" style="fill: none; stroke: #e1e1e1"/>
    <path d="M 359.023729 496.219825 
L 351.749753 475.027384 
" clip-path="url(#p2ea9cec110)" style="fill: none; stroke: #e1e1e1"/>
    <path d="M 359.023729 496.219825 
L 368.980706 523.79872 
" clip-path="url(#p2ea9cec110)" style="fill: none; stroke: #e1e1e1"/>
    <path d="M 371.111341 429.953623 
L 389.649377 412.677194 
" clip-path="url(#p2ea9cec110)" style="fill: none; stroke: #e1e1e1"/>
    <path d="M 371.111341 429.953623 
L 356.944551 445.688366 
" clip-path="url(#p2ea9cec110)" style="fill: none; stroke: #e1e1e1"/>
    <path d="M 435.429896 307.80046 
L 418.542108 307.546139 
" clip-path="url(#p2ea9cec110)" style="fill: none; stroke: #e1e1e1"/>
    <path d="M 435.429896 307.80046 
L 453.313028 307.889459 
" clip-path="url(#p2ea9cec110)" style="fill: none; stroke: #e1e1e1"/>
    <path d="M 437.850792 264.698316 
L 421.395268 286.158943 
" clip-path="url(#p2ea9cec110)" style="fill: none; stroke: #e1e1e1"/>
    <path d="M 437.850792 264.698316 
L 453.062523 242.922515 
" clip-path="url(#p2ea9cec110)" style="fill: none; stroke: #e1e1e1"/>
    <path d="M 492.474837 174.851907 
L 480.34824 197.994204 
" clip-path="url(#p2ea9cec110)" style="fill: none; stroke: #e1e1e1"/>
    <path d="M 492.474837 174.851907 
L 503.27059 151.209631 
" clip-path="url(#p2ea9cec110)" style="fill: none; stroke: #e1e1e1"/>
    <path d="M 494.789852 226.095117 
L 480.771665 223.851404 
" clip-path="url(#p2ea9cec110)" style="fill: none; stroke: #e1e1e1"/>
    <path d="M 494.789852 226.095117 
L 509.220954 227.971613 
" clip-path="url(#p2ea9cec110)" style="fill: none; stroke: #e1e1e1"/>
    <path d="M 443.071912 346.946806 
L 457.487832 326.685088 
" clip-path="url(#p2ea9cec110)" style="fill: none; stroke: #e1e1e1"/>
    <path d="M 443.071912 346.946806 
L 428.697318 368.644098 
" clip-path="url(#p2ea9cec110)" style="fill: none; stroke: #e1e1e1"/>
    <path d="M 432.445056 435.98006 
L 425.044626 416.174515 
" clip-path="url(#p2ea9cec110)" style="fill: none; stroke: #e1e1e1"/>
    <path d="M 432.445056 435.98006 
L 437.635768 454.022501 
" clip-path="url(#p2ea9cec110)" style="fill: none; stroke: #e1e1e1"/>
    <path d="M 475.150053 383.034634 
L 500.415899 379.937473 
" clip-path="url(#p2ea9cec110)" style="fill: none; stroke: #e1e1e1"/>
    <path d="M 475.150053 383.034634 
L 447.325741 387.38949 
" clip-path="url(#p2ea9cec110)" style="fill: none; stroke: #e1e1e1"/>
    <path d="M 402.893166 502.12798 
L 419.225691 483.502699 
" clip-path="url(#p2ea9cec110)" style="fill: none; stroke: #e1e1e1"/>
    <path d="M 402.893166 502.12798 
L 390.516517 527.463635 
" clip-path="url(#p2ea9cec110)" style="fill: none; stroke: #e1e1e1"/>
    <path d="M 541.1324 139.809138 
L 525.145366 133.621883 
" clip-path="url(#p2ea9cec110)" style="fill: none; stroke: #e1e1e1"/>
    <path d="M 541.1324 139.809138 
L 559.654976 144.386502 
" clip-path="url(#p2ea9cec110)" style="fill: none; stroke: #e1e1e1"/>
    <path d="M 516.228765 72.632416 
L 516.290562 100.433293 
" clip-path="url(#p2ea9cec110)" style="fill: none; stroke: #e1e1e1"/>
    <path d="M 516.228765 72.632416 
L 509.17042 42.080007 
" clip-path="url(#p2ea9cec110)" style="fill: none; stroke: #e1e1e1"/>
    <path d="M 508.595815 300.760941 
L 490.207233 304.732092 
" clip-path="url(#p2ea9cec110)" style="fill: none; stroke: #e1e1e1"/>
    <path d="M 508.595815 300.760941 
L 527.047497 294.958471 
" clip-path="url(#p2ea9cec110)" style="fill: none; stroke: #e1e1e1"/>
    <path d="M 498.991819 270.015449 
L 511.069998 250.640722 
" clip-path="url(#p2ea9cec110)" style="fill: none; stroke: #e1e1e1"/>
    <path d="M 498.991819 270.015449 
L 485.602856 288.542478 
" clip-path="url(#p2ea9cec110)" style="fill: none; stroke: #e1e1e1"/>
    <path d="M 490.099542 456.84299 
L 517.59169 458.695631 
" clip-path="url(#p2ea9cec110)" style="fill: none; stroke: #e1e1e1"/>
    <path d="M 490.099542 456.84299 
L 463.625943 461.085783 
" clip-path="url(#p2ea9cec110)" style="fill: none; stroke: #e1e1e1"/>
    <path d="M 540.829772 251.797904 
L 533.303542 240.12857 
" clip-path="url(#p2ea9cec110)" style="fill: none; stroke: #e1e1e1"/>
    <path d="M 540.829772 251.797904 
L 544.496801 266.170677 
" clip-path="url(#p2ea9cec110)" style="fill: none; stroke: #e1e1e1"/>
    <path d="M 550.127923 190.73615 
L 564.72328 169.900062 
" clip-path="url(#p2ea9cec110)" style="fill: none; stroke: #e1e1e1"/>
    <path d="M 550.127923 190.73615 
L 536.40195 210.874771 
" clip-path="url(#p2ea9cec110)" style="fill: none; stroke: #e1e1e1"/>
    <path d="M 543.509693 53.999252 
L 518.57232 35.755864 
" clip-path="url(#p2ea9cec110)" style="fill: none; stroke: #e1e1e1"/>
    <path d="M 543.509693 53.999252 
L 569.205975 63.389837 
" clip-path="url(#p2ea9cec110)" style="fill: none; stroke: #e1e1e1"/>
    <path d="M 535.032074 335.490043 
L 541.779998 312.065091 
" clip-path="url(#p2ea9cec110)" style="fill: none; stroke: #e1e1e1"/>
    <path d="M 535.032074 335.490043 
L 528.315287 357.074862 
" clip-path="url(#p2ea9cec110)" style="fill: none; stroke: #e1e1e1"/>
    <path d="M 528.654705 418.736584 
L 524.264704 398.358961 
" clip-path="url(#p2ea9cec110)" style="fill: none; stroke: #e1e1e1"/>
    <path d="M 528.654705 418.736584 
L 536.156476 441.112175 
" clip-path="url(#p2ea9cec110)" style="fill: none; stroke: #e1e1e1"/>
    <path d="M 565.283961 378.361986 
L 585.152373 378.683919 
" clip-path="url(#p2ea9cec110)" style="fill: none; stroke: #e1e1e1"/>
    <path d="M 565.283961 378.361986 
L 545.136226 378.024654 
" clip-path="url(#p2ea9cec110)" style="fill: none; stroke: #e1e1e1"/>
    <path d="M 594.810842 303.028467 
L 568.643833 299.05857 
" clip-path="url(#p2ea9cec110)" style="fill: none; stroke: #e1e1e1"/>
    <path d="M 594.810842 303.028467 
L 622.80913 298.794759 
" clip-path="url(#p2ea9cec110)" style="fill: none; stroke: #e1e1e1"/>
    <path d="M 571.573218 239.010874 
L 584.942397 216.50548 
" clip-path="url(#p2ea9cec110)" style="fill: none; stroke: #e1e1e1"/>
    <path d="M 571.573218 239.010874 
L 558.68677 261.043916 
" clip-path="url(#p2ea9cec110)" style="fill: none; stroke: #e1e1e1"/>
    <path d="M 599.281133 182.260011 
L 590.617571 166.252956 
" clip-path="url(#p2ea9cec110)" style="fill: none; stroke: #e1e1e1"/>
    <path d="M 599.281133 182.260011 
L 608.974528 195.982248 
" clip-path="url(#p2ea9cec110)" style="fill: none; stroke: #e1e1e1"/>
    <path d="M 590.514455 101.166033 
L 586.62409 122.78888 
" clip-path="url(#p2ea9cec110)" style="fill: none; stroke: #e1e1e1"/>
    <path d="M 590.514455 101.166033 
L 593.422419 81.976325 
" clip-path="url(#p2ea9cec110)" style="fill: none; stroke: #e1e1e1"/>
    <path d="M 625.140817 127.302202 
L 604.602421 136.603598 
" clip-path="url(#p2ea9cec110)" style="fill: none; stroke: #e1e1e1"/>
    <path d="M 625.140817 127.302202 
L 643.212292 118.745217 
" clip-path="url(#p2ea9cec110)" style="fill: none; stroke: #e1e1e1"/>
    <path d="M 610.691945 468.224072 
L 632.56084 469.590306 
" clip-path="url(#p2ea9cec110)" style="fill: none; stroke: #e1e1e1"/>
    <path d="M 610.691945 468.224072 
L 583.444012 468.325273 
" clip-path="url(#p2ea9cec110)" style="fill: none; stroke: #e1e1e1"/>
    <path d="M 581.577417 420.397698 
L 566.939861 442.914722 
" clip-path="url(#p2ea9cec110)" style="fill: none; stroke: #e1e1e1"/>
    <path d="M 581.577417 420.397698 
L 594.110252 399.757106 
" clip-path="url(#p2ea9cec110)" style="fill: none; stroke: #e1e1e1"/>
    <path d="M 592.958597 510.646714 
L 602.050343 535.502764 
" clip-path="url(#p2ea9cec110)" style="fill: none; stroke: #e1e1e1"/>
    <path d="M 592.958597 510.646714 
L 575.330469 488.86655 
" clip-path="url(#p2ea9cec110)" style="fill: none; stroke: #e1e1e1"/>
    <path d="M 638.8533 236.955176 
L 647.986784 260.543241 
" clip-path="url(#p2ea9cec110)" style="fill: none; stroke: #e1e1e1"/>
    <path d="M 638.8533 236.955176 
L 623.793464 213.97118 
" clip-path="url(#p2ea9cec110)" style="fill: none; stroke: #e1e1e1"/>
    <path d="M 652.997486 198.665048 
L 674.253049 191.432137 
" clip-path="url(#p2ea9cec110)" style="fill: none; stroke: #e1e1e1"/>
    <path d="M 652.997486 198.665048 
L 628.95538 200.884107 
" clip-path="url(#p2ea9cec110)" style="fill: none; stroke: #e1e1e1"/>
    <path d="M 648.855182 51.909702 
L 622.12647 61.841612 
" clip-path="url(#p2ea9cec110)" style="fill: none; stroke: #e1e1e1"/>
    <path d="M 648.855182 51.909702 
L 676.493558 34.825031 
" clip-path="url(#p2ea9cec110)" style="fill: none; stroke: #e1e1e1"/>
    <path d="M 624.627977 334.505655 
L 635.87375 310.562208 
" clip-path="url(#p2ea9cec110)" style="fill: none; stroke: #e1e1e1"/>
    <path d="M 624.627977 334.505655 
L 614.966673 357.212855 
" clip-path="url(#p2ea9cec110)" style="fill: none; stroke: #e1e1e1"/>
    <path d="M 647.114963 384.58879 
L 626.096519 381.268813 
" clip-path="url(#p2ea9cec110)" style="fill: none; stroke: #e1e1e1"/>
    <path d="M 647.114963 384.58879 
L 667.977079 389.949389 
" clip-path="url(#p2ea9cec110)" style="fill: none; stroke: #e1e1e1"/>
    <path d="M 648.329942 541.919201 
L 676.190043 546.429838 
" clip-path="url(#p2ea9cec110)" style="fill: none; stroke: #e1e1e1"/>
    <path d="M 648.329942 541.919201 
L 622.517851 546.966391 
" clip-path="url(#p2ea9cec110)" style="fill: none; stroke: #e1e1e1"/>
    <path d="M 674.179596 142.109151 
L 665.778199 125.546147 
" clip-path="url(#p2ea9cec110)" style="fill: none; stroke: #e1e1e1"/>
    <path d="M 674.179596 142.109151 
L 683.3936 160.383842 
" clip-path="url(#p2ea9cec110)" style="fill: none; stroke: #e1e1e1"/>
    <path d="M 675.985387 74.458218 
L 688.540186 46.62165 
" clip-path="url(#p2ea9cec110)" style="fill: none; stroke: #e1e1e1"/>
    <path d="M 675.985387 74.458218 
L 666.236811 95.399469 
" clip-path="url(#p2ea9cec110)" style="fill: none; stroke: #e1e1e1"/>
    <path d="M 673.207495 504.038453 
L 660.571666 485.489213 
" clip-path="url(#p2ea9cec110)" style="fill: none; stroke: #e1e1e1"/>
    <path d="M 673.207495 504.038453 
L 687.858702 528.414361 
" clip-path="url(#p2ea9cec110)" style="fill: none; stroke: #e1e1e1"/>
    <path d="M 666.293156 438.763824 
L 676.930545 419.572255 
" clip-path="url(#p2ea9cec110)" style="fill: none; stroke: #e1e1e1"/>
    <path d="M 666.293156 438.763824 
L 657.123321 456.301073 
" clip-path="url(#p2ea9cec110)" style="fill: none; stroke: #e1e1e1"/>
    <path d="M 682.043776 289.21246 
L 703.218345 288.690287 
" clip-path="url(#p2ea9cec110)" style="fill: none; stroke: #e1e1e1"/>
    <path d="M 682.043776 289.21246 
L 664.650877 289.225302 
" clip-path="url(#p2ea9cec110)" style="fill: none; stroke: #e1e1e1"/>
    <path d="M 726.662919 146.353999 
L 742.931081 124.948266 
" clip-path="url(#p2ea9cec110)" style="fill: none; stroke: #e1e1e1"/>
    <path d="M 726.662919 146.353999 
L 710.629467 164.769483 
" clip-path="url(#p2ea9cec110)" style="fill: none; stroke: #e1e1e1"/>
    <path d="M 713.198995 226.385425 
L 703.679402 201.935949 
" clip-path="url(#p2ea9cec110)" style="fill: none; stroke: #e1e1e1"/>
    <path d="M 713.198995 226.385425 
L 721.702482 254.221855 
" clip-path="url(#p2ea9cec110)" style="fill: none; stroke: #e1e1e1"/>
    <path d="M 719.731579 71.689759 
L 709.686221 44.07602 
" clip-path="url(#p2ea9cec110)" style="fill: none; stroke: #e1e1e1"/>
    <path d="M 719.731579 71.689759 
L 736.280702 91.456116 
" clip-path="url(#p2ea9cec110)" style="fill: none; stroke: #e1e1e1"/>
    <path d="M 708.996219 350.018626 
L 719.212162 321.554956 
" clip-path="url(#p2ea9cec110)" style="fill: none; stroke: #e1e1e1"/>
    <path d="M 708.996219 350.018626 
L 698.67452 375.480433 
" clip-path="url(#p2ea9cec110)" style="fill: none; stroke: #e1e1e1"/>
    <path d="M 723.866483 427.620845 
L 706.474236 411.499012 
" clip-path="url(#p2ea9cec110)" style="fill: none; stroke: #e1e1e1"/>
    <path d="M 723.866483 427.620845 
L 741.444358 446.646552 
" clip-path="url(#p2ea9cec110)" style="fill: none; stroke: #e1e1e1"/>
    <path d="M 719.165314 499.933075 
L 736.254112 479.805185 
" clip-path="url(#p2ea9cec110)" style="fill: none; stroke: #e1e1e1"/>
    <path d="M 719.165314 499.933075 
L 708.869099 527.000805 
" clip-path="url(#p2ea9cec110)" style="fill: none; stroke: #e1e1e1"/>
    <path d="M 803.215045 58.52144 
L 786.200585 80.217511 
" clip-path="url(#p2ea9cec110)" style="fill: none; stroke: #e1e1e1"/>
    <path d="M 803.215045 58.52144 
L 813.873456 33.741027 
" clip-path="url(#p2ea9cec110)" style="fill: none; stroke: #e1e1e1"/>
    <path d="M 778.48146 156.304912 
L 769.920548 130.643091 
" clip-path="url(#p2ea9cec110)" style="fill: none; stroke: #e1e1e1"/>
    <path d="M 778.48146 156.304912 
L 787.53766 179.13722 
" clip-path="url(#p2ea9cec110)" style="fill: none; stroke: #e1e1e1"/>
    <path d="M 810.989769 108.035837 
L 829.72577 111.65403 
" clip-path="url(#p2ea9cec110)" style="fill: none; stroke: #e1e1e1"/>
    <path d="M 810.989769 108.035837 
L 789.347326 104.585486 
" clip-path="url(#p2ea9cec110)" style="fill: none; stroke: #e1e1e1"/>
    <path d="M 767.670151 242.036166 
L 783.719837 221.199564 
" clip-path="url(#p2ea9cec110)" style="fill: none; stroke: #e1e1e1"/>
    <path d="M 767.670151 242.036166 
L 749.85518 263.689279 
" clip-path="url(#p2ea9cec110)" style="fill: none; stroke: #e1e1e1"/>
    <path d="M 767.391578 330.714326 
L 749.525319 310.248032 
" clip-path="url(#p2ea9cec110)" style="fill: none; stroke: #e1e1e1"/>
    <path d="M 767.391578 330.714326 
L 783.615772 350.523109 
" clip-path="url(#p2ea9cec110)" style="fill: none; stroke: #e1e1e1"/>
    <path d="M 778.112318 414.171707 
L 787.355151 391.638639 
" clip-path="url(#p2ea9cec110)" style="fill: none; stroke: #e1e1e1"/>
    <path d="M 778.112318 414.171707 
L 769.684842 439.234615 
" clip-path="url(#p2ea9cec110)" style="fill: none; stroke: #e1e1e1"/>
    <path d="M 803.567453 510.183261 
L 814.327369 535.033186 
" clip-path="url(#p2ea9cec110)" style="fill: none; stroke: #e1e1e1"/>
    <path d="M 803.567453 510.183261 
L 786.449328 488.36176 
" clip-path="url(#p2ea9cec110)" style="fill: none; stroke: #e1e1e1"/>
    <path d="M 811.300897 461.317446 
L 789.570673 464.548974 
" clip-path="url(#p2ea9cec110)" style="fill: none; stroke: #e1e1e1"/>
    <path d="M 811.300897 461.317446 
L 830.122979 457.803814 
" clip-path="url(#p2ea9cec110)" style="fill: none; stroke: #e1e1e1"/>
    <path d="M 859.928032 30.407019 
L 834.802346 24.205762 
" clip-path="url(#p2ea9cec110)" style="fill: none; stroke: #e1e1e1"/>
    <path d="M 859.928032 30.407019 
L 888.369134 24.953203 
" clip-path="url(#p2ea9cec110)" style="fill: none; stroke: #e1e1e1"/>
    <path d="M 821.531754 159.449371 
L 833.405972 139.020715 
" clip-path="url(#p2ea9cec110)" style="fill: none; stroke: #e1e1e1"/>
    <path d="M 821.531754 159.449371 
L 810.203609 179.942783 
" clip-path="url(#p2ea9cec110)" style="fill: none; stroke: #e1e1e1"/>
    <path d="M 826.900962 240.74661 
L 844.958425 261.32115 
" clip-path="url(#p2ea9cec110)" style="fill: none; stroke: #e1e1e1"/>
    <path d="M 826.900962 240.74661 
L 811.490557 220.829182 
" clip-path="url(#p2ea9cec110)" style="fill: none; stroke: #e1e1e1"/>
    <path d="M 827.101958 329.374895 
L 845.133456 308.090585 
" clip-path="url(#p2ea9cec110)" style="fill: none; stroke: #e1e1e1"/>
    <path d="M 827.101958 329.374895 
L 811.657721 349.770525 
" clip-path="url(#p2ea9cec110)" style="fill: none; stroke: #e1e1e1"/>
    <path d="M 821.852023 410.606243 
L 833.784175 430.807745 
" clip-path="url(#p2ea9cec110)" style="fill: none; stroke: #e1e1e1"/>
    <path d="M 821.852023 410.606243 
L 810.442375 390.433669 
" clip-path="url(#p2ea9cec110)" style="fill: none; stroke: #e1e1e1"/>
    <path d="M 860.516056 538.554908 
L 888.9324 544.007139 
" clip-path="url(#p2ea9cec110)" style="fill: none; stroke: #e1e1e1"/>
    <path d="M 860.516056 538.554908 
L 835.39739 544.726157 
" clip-path="url(#p2ea9cec110)" style="fill: none; stroke: #e1e1e1"/>
    <path d="M 869.678157 144.148565 
L 858.988853 130.408592 
" clip-path="url(#p2ea9cec110)" style="fill: none; stroke: #e1e1e1"/>
    <path d="M 869.678157 144.148565 
L 880.223612 156.848135 
" clip-path="url(#p2ea9cec110)" style="fill: none; stroke: #e1e1e1"/>
    <path d="M 877.171 70.946114 
L 896.446967 42.962102 
" clip-path="url(#p2ea9cec110)" style="fill: none; stroke: #e1e1e1"/>
    <path d="M 877.171 70.946114 
L 860.774667 95.235966 
" clip-path="url(#p2ea9cec110)" style="fill: none; stroke: #e1e1e1"/>
    <path d="M 869.609401 218.43634 
L 878.889574 191.770477 
" clip-path="url(#p2ea9cec110)" style="fill: none; stroke: #e1e1e1"/>
    <path d="M 869.609401 218.43634 
L 865.01862 248.402513 
" clip-path="url(#p2ea9cec110)" style="fill: none; stroke: #e1e1e1"/>
    <path d="M 869.544734 350.580308 
L 864.980361 320.36229 
" clip-path="url(#p2ea9cec110)" style="fill: none; stroke: #e1e1e1"/>
    <path d="M 869.544734 350.580308 
L 878.855974 377.327454 
" clip-path="url(#p2ea9cec110)" style="fill: none; stroke: #e1e1e1"/>
    <path d="M 877.728433 498.218505 
L 861.312679 474.12054 
" clip-path="url(#p2ea9cec110)" style="fill: none; stroke: #e1e1e1"/>
    <path d="M 877.728433 498.218505 
L 896.983804 526.041674 
" clip-path="url(#p2ea9cec110)" style="fill: none; stroke: #e1e1e1"/>
    <path d="M 870.096843 425.245323 
L 880.51708 412.367024 
" clip-path="url(#p2ea9cec110)" style="fill: none; stroke: #e1e1e1"/>
    <path d="M 870.096843 425.245323 
L 859.507656 439.138576 
" clip-path="url(#p2ea9cec110)" style="fill: none; stroke: #e1e1e1"/>
    <path d="M 924.036715 124.474842 
L 946.303296 107.716589 
" clip-path="url(#p2ea9cec110)" style="fill: none; stroke: #e1e1e1"/>
    <path d="M 924.036715 124.474842 
L 906.152078 144.793244 
" clip-path="url(#p2ea9cec110)" style="fill: none; stroke: #e1e1e1"/>
    <path d="M 927.597531 70.015133 
L 918.66095 42.909391 
" clip-path="url(#p2ea9cec110)" style="fill: none; stroke: #e1e1e1"/>
    <path d="M 927.597531 70.015133 
L 946.90345 88.616297 
" clip-path="url(#p2ea9cec110)" style="fill: none; stroke: #e1e1e1"/>
    <path d="M 924.351396 444.244037 
L 906.416019 424.093668 
" clip-path="url(#p2ea9cec110)" style="fill: none; stroke: #e1e1e1"/>
    <path d="M 924.351396 444.244037 
L 946.647046 460.793148 
" clip-path="url(#p2ea9cec110)" style="fill: none; stroke: #e1e1e1"/>
    <path d="M 928.074771 498.785729 
L 947.289498 479.987198 
" clip-path="url(#p2ea9cec110)" style="fill: none; stroke: #e1e1e1"/>
    <path d="M 928.074771 498.785729 
L 919.190736 525.95969 
" clip-path="url(#p2ea9cec110)" style="fill: none; stroke: #e1e1e1"/>
   </g>
  </g>
 </g>
 <defs>
  <clipPath id="p2ea9cec110">
   <rect x="7.2" y="7.2" width="970.2" height="554.4"/>
  </clipPath>
 </defs>
</svg>
